<svg width="20" height="18" viewBox="0 0 20 18" fill="none" xmlns="http://www.w3.org/2000/svg">
<path d="M19.0015 2.25H1.00146C0.591465 2.25 0.251465 1.91 0.251465 1.5C0.251465 1.09 0.591465 0.75 1.00146 0.75H19.0015C19.4115 0.75 19.7515 1.09 19.7515 1.5C19.7515 1.91 19.4115 2.25 19.0015 2.25Z" fill="#292D32"/>
<path d="M19.0015 7.25H1.00146C0.591465 7.25 0.251465 6.91 0.251465 6.5C0.251465 6.09 0.591465 5.75 1.00146 5.75H19.0015C19.4115 5.75 19.7515 6.09 19.7515 6.5C19.7515 6.91 19.4115 7.25 19.0015 7.25Z" fill="#292D32"/>
<path d="M19.0015 12.25H1.00146C0.591465 12.25 0.251465 11.91 0.251465 11.5C0.251465 11.09 0.591465 10.75 1.00146 10.75H19.0015C19.4115 10.75 19.7515 11.09 19.7515 11.5C19.7515 11.91 19.4115 12.25 19.0015 12.25Z" fill="#292D32"/>
<path d="M19.0015 17.25H1.00146C0.591465 17.25 0.251465 16.91 0.251465 16.5C0.251465 16.09 0.591465 15.75 1.00146 15.75H19.0015C19.4115 15.75 19.7515 16.09 19.7515 16.5C19.7515 16.91 19.4115 17.25 19.0015 17.25Z" fill="#292D32"/>
</svg>
