<svg width="29" height="28" viewBox="0 0 29 28" fill="none" xmlns="http://www.w3.org/2000/svg">
<path fill-rule="evenodd" clip-rule="evenodd" d="M2.32887 0.4489C2.02887 -0.0110998 1.39874 -0.141007 0.948741 0.168993C0.488741 0.468993 0.358711 1.099 0.668711 1.549L2.57887 4.41899L5.46876 15.259C6.20876 18.049 8.74868 19.9989 11.6387 19.9989H24.4988C25.0488 19.9989 25.4988 19.5489 25.4988 18.9989C25.4988 18.4489 25.0488 17.9989 24.4988 17.9989H11.6387C10.0687 17.9989 8.64891 17.1589 7.86891 15.8589L24.7688 14.139C26.0788 14.009 27.1387 13.049 27.4087 11.769L28.4788 6.60893C28.8688 4.74893 27.4388 2.99895 25.5388 2.99895H4.03883L2.32887 0.4489ZM7.17872 13.919L4.79884 4.99895H25.5388C26.1788 4.99895 26.6488 5.5789 26.5188 6.1989L25.4487 11.3589C25.3587 11.7889 25.0089 12.109 24.5689 12.149L7.17872 13.919Z" fill="#3B3D41"/>
<path fill-rule="evenodd" clip-rule="evenodd" d="M6.49878 24.9989C6.49878 23.3389 7.83878 21.9989 9.49878 21.9989C11.1588 21.9989 12.4988 23.3389 12.4988 24.9989C12.4988 26.6589 11.1588 27.9989 9.49878 27.9989C7.83878 27.9989 6.49878 26.6589 6.49878 24.9989ZM9.49878 23.9989C8.94878 23.9989 8.49878 24.4489 8.49878 24.9989C8.49878 25.5489 8.94878 25.9989 9.49878 25.9989C10.0488 25.9989 10.4988 25.5489 10.4988 24.9989C10.4988 24.4489 10.0488 23.9989 9.49878 23.9989Z" fill="#3B3D41"/>
<path fill-rule="evenodd" clip-rule="evenodd" d="M19.4988 24.9989C19.4988 23.3389 20.8388 21.9989 22.4988 21.9989C24.1588 21.9989 25.4988 23.3389 25.4988 24.9989C25.4988 26.6589 24.1588 27.9989 22.4988 27.9989C20.8388 27.9989 19.4988 26.6589 19.4988 24.9989ZM22.4988 23.9989C21.9488 23.9989 21.4988 24.4489 21.4988 24.9989C21.4988 25.5489 21.9488 25.9989 22.4988 25.9989C23.0488 25.9989 23.4988 25.5489 23.4988 24.9989C23.4988 24.4489 23.0488 23.9989 22.4988 23.9989Z" fill="#3B3D41"/>
</svg>
