<svg width="18" height="15" viewBox="0 0 18 15" fill="none" xmlns="http://www.w3.org/2000/svg">
<path d="M5.6713 6.46947H5.4191H1.88856C1.06841 6.46947 0.559056 7.00642 0.55459 7.4928C0.55459 7.4928 0.55459 7.49281 0.55459 7.49281M5.6713 6.46947L0.0546108 7.48823L0.55459 7.49281M5.6713 6.46947L5.8212 6.26665L9.67652 1.0504L9.67661 1.05047L9.68268 1.04189C9.90523 0.727154 10.3417 0.5 10.8542 0.5H11.0885C11.5407 0.5 11.9155 0.672428 12.1492 0.909708C12.3797 1.14385 12.4681 1.42987 12.4012 1.71211L12.4012 1.71219L11.7866 4.30956L12.2728 4.42608M5.6713 6.46947L11.7863 4.31063M0.55459 7.49281L0.500033 13.4622L0.55459 7.49281ZM17.9531 6.69267L17.6575 6.60479L17.4725 6.55558C17.4729 6.55379 17.4734 6.552 17.4739 6.55021L17.4738 6.55021L15.2913 13.6641L15.2891 13.6713L15.2871 13.6785C15.1697 14.1068 14.6683 14.5 13.9816 14.5H1.834C1.00413 14.5 0.495618 13.9525 0.500033 13.4622L15.7693 13.8107L17.9531 6.69267ZM17.9531 6.69267L17.7267 6.6232M17.9531 6.69267L17.9557 6.6841M17.7267 6.6232L12.8878 1.82733L12.2728 4.42608M17.7267 6.6232L17.9557 6.6841M17.7267 6.6232L17.4751 6.54601L17.4764 6.54164L17.9557 6.6841M17.9557 6.6841C18.2099 5.72839 17.3388 4.82143 16.1654 4.82143H12.8383C12.5989 4.82143 12.4352 4.75448 12.3524 4.68698M12.3524 4.68698C12.2856 4.63287 12.2414 4.55733 12.2728 4.42608M12.3524 4.68698L12.0376 5.07542C11.9578 5.01074 11.8622 4.90923 11.8066 4.75818C11.7504 4.60551 11.7529 4.45095 11.7863 4.31063M12.3524 4.68698L12.0365 5.07453C12.2299 5.23216 12.5147 5.32143 12.8383 5.32143H16.1654C16.6248 5.32143 17.0029 5.49888 17.2353 5.74081C17.4627 5.97742 17.5472 6.26528 17.4742 6.54911L17.4741 6.54939L11.7863 4.31063M12.2728 4.42608L11.7863 4.31095L11.7863 4.31063M9.97762 1.001L9.9776 1.00099L9.97257 1.0078L6.0171 6.35961L5.9192 6.49208V6.6568V13.9286V14.4286H6.4192H13.9816C14.4087 14.4286 14.8744 14.1777 15.0021 13.6976L15.0042 13.6894L17.1819 6.59184L17.1859 6.57884L17.1892 6.56564C17.2719 6.23238 17.1532 5.92188 16.9503 5.71355C16.7506 5.50838 16.4663 5.39286 16.1654 5.39286H12.8383C12.4097 5.39286 12.0241 5.27153 11.7713 5.06579C11.5238 4.86407 11.434 4.61094 11.4993 4.33398C11.4993 4.33388 11.4993 4.33378 11.4993 4.33369L12.1148 1.73495C12.1148 1.73487 12.1148 1.73478 12.1149 1.7347C12.1938 1.40185 12.0728 1.09394 11.8698 0.887993C11.6699 0.685209 11.3871 0.571429 11.0885 0.571429H10.8542C10.5259 0.571429 10.1844 0.713814 9.97762 1.001ZM5.13537 14.4286H5.63537V13.9286V7.0409V6.5409H5.13537H1.88856C1.39819 6.5409 0.844624 6.88646 0.838465 7.49171L0.83846 7.49223L0.783907 13.4607C0.783906 13.4608 0.783905 13.4609 0.783904 13.461C0.783904 13.461 0.783903 13.4611 0.783903 13.4611C0.777995 14.0762 1.34047 14.4286 1.834 14.4286H5.13537Z" fill="#4C5057" stroke="#4C5057"/>
</svg>
