<svg width="20" height="12" viewBox="0 0 20 12" fill="none" xmlns="http://www.w3.org/2000/svg">
<path d="M20 1.69515C20 2.22237 19.625 2.65373 19.1667 2.65373H0.833333C0.375 2.65373 0 2.22237 0 1.69515C0 1.16793 0.375 0.736572 0.833333 0.736572H19.1667C19.625 0.736572 20 1.16793 20 1.69515Z" fill="#4C5057"/>
<path d="M19.1667 7.06793C19.625 7.06793 20 6.63657 20 6.10935C20 5.58213 19.625 5.15077 19.1667 5.15077H0.833333C0.375 5.15077 0 5.58213 0 6.10935C0 6.63657 0.375 7.06793 0.833333 7.06793H19.1667Z" fill="#4C5057"/>
<path d="M10 11.7366C10.4583 11.7366 10.8333 11.3052 10.8333 10.778C10.8333 10.2508 10.4583 9.81941 10 9.81941H0.833333C0.375 9.81941 0 10.2508 0 10.778C0 11.3052 0.375 11.7366 0.833333 11.7366H10Z" fill="#4C5057"/>
</svg>
