<svg width="60" height="60" viewBox="0 0 60 60" fill="none" xmlns="http://www.w3.org/2000/svg">
<path fill-rule="evenodd" clip-rule="evenodd" d="M11.6144 56.2749L21.4071 52.62L36.4929 58.5698C38.5286 59.3773 40.8214 59.3773 42.8571 58.5698L55.95 53.385C58.3928 52.4075 60 50.0699 60 47.4562V8.59025C60 4.06404 55.3929 0.983 51.1714 2.66173L41.2929 6.59289C40.2858 6.99664 39.1287 6.99664 38.1215 6.59289L22.2858 0.324049C22.0286 0.2178 21.75 0.175415 21.4715 0.175415C21.1929 0.175415 20.9358 0.218039 20.6786 0.303038L5.57138 5.97657C2.24995 7.2303 0.0428781 10.3753 0.0214495 13.924L0 48.3275C0 54.2775 6.00009 58.3786 11.6144 56.2749ZM23.6358 5.44532L23.5714 48.9013L36.4286 53.9798V10.8003C36.4286 10.6941 36.4286 10.609 36.45 10.5028L23.6358 5.44532ZM40.7143 11.0978V54.8085C40.9071 54.766 41.0786 54.7024 41.2715 54.6386L54.3643 49.4325C55.1786 49.1138 55.7143 48.3274 55.7143 47.4562V8.59025C55.7143 7.08151 54.1714 6.06167 52.7786 6.61416L42.9 10.5453C42.1929 10.8216 41.4643 11.0128 40.7143 11.0978ZM19.2857 5.38151L7.09298 9.95027C5.42155 10.5665 4.32859 12.1602 4.30716 13.924L4.28571 48.3275C4.28571 51.3025 7.28563 53.3637 10.0928 52.3012L19.2857 48.8588V5.38151Z" fill="white"/>
</svg>
