<svg width="18" height="24" viewBox="0 0 18 24" fill="none" xmlns="http://www.w3.org/2000/svg">
<path fill-rule="evenodd" clip-rule="evenodd" d="M9 5.14285C6.74182 5.14285 4.90909 7.06285 4.90909 9.42856C4.90909 11.7943 6.74182 13.7143 9 13.7143C11.2582 13.7143 13.0909 11.7943 13.0909 9.42856C13.0909 7.06285 11.2582 5.14285 9 5.14285ZM6.54546 9.42856C6.54546 8.00571 7.64182 6.85714 9 6.85714C10.3582 6.85714 11.4545 8.00571 11.4545 9.42856C11.4545 10.8514 10.3582 12 9 12C7.64182 12 6.54546 10.8514 6.54546 9.42856Z" fill="#4C5057"/>
<path fill-rule="evenodd" clip-rule="evenodd" d="M8.49273 23.82C8.49273 23.82 8.49273 23.82 9 23.1428L8.49273 23.82C8.78728 24.06 9.21272 24.06 9.50727 23.82L9 23.1428C9.50727 23.82 9.50727 23.82 9.50727 23.82V23.8114H9.51546L9.53184 23.7943C9.55638 23.7771 9.5809 23.76 9.60545 23.7257C9.6709 23.6743 9.76087 23.5971 9.8836 23.4943C10.1127 23.2886 10.44 22.9885 10.8327 22.6028C11.6182 21.84 12.6737 20.7428 13.7209 19.4057C15.7991 16.7828 18 13.0885 18 9.16279C18 4.07994 13.95 0 9 0C4.05 0 0 4.07994 0 9.16279C0 13.0885 2.20089 16.7828 4.27907 19.4057C5.32635 20.7428 6.38183 21.84 7.16728 22.6028C7.56001 22.9885 7.88731 23.2886 8.1164 23.4943C8.23913 23.5971 8.3291 23.6743 8.39455 23.7257C8.4191 23.76 8.44362 23.7771 8.46816 23.7943L8.48454 23.8114H8.49273V23.82ZM1.63636 9.16279C1.63636 5.07423 4.90909 1.71428 9 1.71428C13.0909 1.71428 16.3636 5.07423 16.3636 9.16279C16.3636 12.4628 14.4736 15.7628 12.4609 18.3171C11.4627 19.5771 10.4727 20.6229 9.72 21.3428C9.44182 21.6171 9.19636 21.8485 9 22.0285C8.80364 21.8485 8.55818 21.6171 8.28 21.3428C7.52727 20.6229 6.53729 19.5771 5.53911 18.3171C3.52638 15.7628 1.63636 12.4628 1.63636 9.16279Z" fill="#4C5057"/>
</svg>
