<svg width="60" height="67" viewBox="0 0 60 67" fill="none" xmlns="http://www.w3.org/2000/svg">
<path fill-rule="evenodd" clip-rule="evenodd" d="M0 2.53256C0 1.23613 1.22182 0.175415 2.72727 0.175415H57.2727C58.7782 0.175415 60 1.23613 60 2.53256C60 3.82899 58.7782 4.8897 57.2727 4.8897V11.9611C57.2727 21.2954 51 29.3568 41.9019 33.1754C51 36.994 57.2727 45.0554 57.2727 54.3897V61.4611C58.7782 61.4611 60 62.5218 60 63.8183C60 65.1147 58.7782 66.1754 57.2727 66.1754H2.72727C1.22182 66.1754 0 65.1147 0 63.8183C0 62.5218 1.22182 61.4611 2.72727 61.4611V54.3897C2.72727 45.0554 8.99996 36.994 18.0981 33.1754C8.99996 29.3568 2.72727 21.2954 2.72727 11.9611V4.8897C1.22182 4.8897 0 3.82899 0 2.53256ZM8.18182 4.8897V9.60399H51.8182V4.8897H8.18182ZM51.6491 14.3183H8.35094C9.69276 23.629 18.8727 30.8183 30 30.8183C41.1273 30.8183 50.3072 23.629 51.6491 14.3183ZM30 35.5326C18.8727 35.5326 9.69276 42.7218 8.35094 52.0326H51.6491C50.3072 42.7218 41.1273 35.5326 30 35.5326ZM51.8182 56.7468H8.18182V61.4611H51.8182V56.7468Z" fill="white"/>
</svg>
