<svg width="60" height="63" viewBox="0 0 60 63" fill="none" xmlns="http://www.w3.org/2000/svg">
<path d="M57.7117 15.9783C57.6502 15.9783 57.5579 15.9783 57.4655 15.9783C41.1862 14.4499 24.9377 13.8732 8.84307 15.4015L2.56523 15.9783C1.27273 16.0936 0.134105 15.2285 0.0110099 14.0173C-0.112085 12.8062 0.811127 11.768 2.07285 11.6527L8.35069 11.0759C24.7223 9.51872 41.3093 10.1243 57.9272 11.6527C59.1889 11.768 60.1121 12.835 59.989 14.0173C59.8967 15.142 58.8811 15.9783 57.7117 15.9783Z" fill="white"/>
<path d="M19.2446 13.0657C19.1215 13.0657 18.9984 13.0657 18.8445 13.0369C17.6136 12.835 16.7519 11.7103 16.9673 10.5568L17.6443 6.77916C18.1367 4.01078 18.8137 0.175415 25.984 0.175415H34.0467C41.2478 0.175415 41.9248 4.15496 42.3864 6.808L43.0634 10.5568C43.2789 11.7392 42.4172 12.8638 41.1862 13.0369C39.9245 13.2387 38.7243 12.4313 38.5397 11.2778L37.8627 7.52893C37.4318 5.02008 37.3395 4.52985 34.0775 4.52985H26.0148C22.7528 4.52985 22.6912 4.93357 22.2296 7.50009L21.5218 11.2489C21.3372 12.3159 20.3524 13.0657 19.2446 13.0657Z" fill="white"/>
<path d="M39.8937 62.1755H20.137C9.39699 62.1755 8.96616 56.6099 8.62764 52.1112L6.62735 23.0721C6.53503 21.8897 7.51979 20.8516 8.78151 20.7651C10.074 20.7074 11.1511 21.6014 11.2434 22.7837L13.2437 51.8229C13.5822 56.2061 13.7053 57.8499 20.137 57.8499H39.8937C46.3562 57.8499 46.4793 56.2061 46.7871 51.8229L48.7874 22.7837C48.8797 21.6014 49.9875 20.7074 51.2492 20.7651C52.511 20.8516 53.4957 21.8609 53.4034 23.0721L51.4031 52.1112C51.0646 56.6099 50.6338 62.1755 39.8937 62.1755Z" fill="white"/>
<path d="M35.1238 46.315H24.8761C23.6144 46.315 22.5681 45.3345 22.5681 44.1522C22.5681 42.9698 23.6144 41.9894 24.8761 41.9894H35.1238C36.3855 41.9894 37.4318 42.9698 37.4318 44.1522C37.4318 45.3345 36.3855 46.315 35.1238 46.315Z" fill="white"/>
<path d="M37.7088 34.7802H22.322C21.0602 34.7802 20.0139 33.7997 20.0139 32.6174C20.0139 31.4351 21.0602 30.4546 22.322 30.4546H37.7088C38.9705 30.4546 40.0168 31.4351 40.0168 32.6174C40.0168 33.7997 38.9705 34.7802 37.7088 34.7802Z" fill="white"/>
</svg>
