<svg width="30" height="30" viewBox="0 0 30 30" fill="none" xmlns="http://www.w3.org/2000/svg">
<circle cx="15" cy="15" r="14.5" fill="white" stroke="#4C5057"/>
<path d="M11.6713 14.4695H11.4191H7.88856C7.06841 14.4695 6.55906 15.0064 6.55459 15.4928C6.55459 15.4928 6.55459 15.4928 6.55459 15.4928M11.6713 14.4695L6.05461 15.4882L6.55459 15.4928M11.6713 14.4695L11.8212 14.2667L15.6765 9.0504L15.6766 9.05047L15.6827 9.04189C15.9052 8.72715 16.3417 8.5 16.8542 8.5H17.0885C17.5407 8.5 17.9155 8.67243 18.1492 8.90971C18.3797 9.14385 18.4681 9.42987 18.4012 9.71211L18.4012 9.71219L17.7866 12.3096L18.2728 12.4261M11.6713 14.4695L17.7863 12.3106M6.55459 15.4928L6.50003 21.4622L6.55459 15.4928ZM23.9531 14.6927L23.6575 14.6048L23.4725 14.5556C23.4729 14.5538 23.4734 14.552 23.4739 14.5502L23.4738 14.5502L21.2913 21.6641L21.2891 21.6713L21.2871 21.6785C21.1697 22.1068 20.6683 22.5 19.9816 22.5H7.834C7.00413 22.5 6.49562 21.9525 6.50003 21.4622L21.7693 21.8107L23.9531 14.6927ZM23.9531 14.6927L23.7267 14.6232M23.9531 14.6927L23.9557 14.6841M23.7267 14.6232L18.8878 9.82733L18.2728 12.4261M23.7267 14.6232L23.9557 14.6841M23.7267 14.6232L23.4751 14.546L23.4764 14.5416L23.9557 14.6841M23.9557 14.6841C24.2099 13.7284 23.3388 12.8214 22.1654 12.8214H18.8383C18.5989 12.8214 18.4352 12.7545 18.3524 12.687M18.3524 12.687C18.2856 12.6329 18.2414 12.5573 18.2728 12.4261M18.3524 12.687L18.0376 13.0754C17.9578 13.0107 17.8622 12.9092 17.8066 12.7582C17.7504 12.6055 17.7529 12.4509 17.7863 12.3106M18.3524 12.687L18.0365 13.0745C18.2299 13.2322 18.5147 13.3214 18.8383 13.3214H22.1654C22.6248 13.3214 23.0029 13.4989 23.2353 13.7408C23.4627 13.9774 23.5472 14.2653 23.4742 14.5491L23.4741 14.5494L17.7863 12.3106M18.2728 12.4261L17.7863 12.3109L17.7863 12.3106M15.9776 9.001L15.9776 9.00099L15.9726 9.0078L12.0171 14.3596L11.9192 14.4921V14.6568V21.9286V22.4286H12.4192H19.9816C20.4087 22.4286 20.8744 22.1777 21.0021 21.6976L21.0042 21.6894L23.1819 14.5918L23.1859 14.5788L23.1892 14.5656C23.2719 14.2324 23.1532 13.9219 22.9503 13.7136C22.7506 13.5084 22.4663 13.3929 22.1654 13.3929H18.8383C18.4097 13.3929 18.0241 13.2715 17.7713 13.0658C17.5238 12.8641 17.434 12.6109 17.4993 12.334C17.4993 12.3339 17.4993 12.3338 17.4993 12.3337L18.1148 9.73495C18.1148 9.73487 18.1148 9.73478 18.1149 9.7347C18.1938 9.40185 18.0728 9.09394 17.8698 8.88799C17.6699 8.68521 17.3871 8.57143 17.0885 8.57143H16.8542C16.5259 8.57143 16.1844 8.71381 15.9776 9.001ZM11.1354 22.4286H11.6354V21.9286V15.0409V14.5409H11.1354H7.88856C7.39819 14.5409 6.84462 14.8865 6.83846 15.4917L6.83846 15.4922L6.78391 21.4607C6.78391 21.4608 6.78391 21.4609 6.7839 21.461C6.7839 21.461 6.7839 21.4611 6.7839 21.4611C6.77799 22.0762 7.34047 22.4286 7.834 22.4286H11.1354Z" fill="#4C5057" stroke="#4C5057"/>
</svg>
