<svg width="104" height="65" viewBox="0 0 104 65" fill="none" xmlns="http://www.w3.org/2000/svg">
<rect x="21.7476" y="9.99288" width="15" height="49" rx="4.5" transform="rotate(5 21.7476 9.99288)" fill="#553925" fill-opacity="0.75" stroke="black"/>
<path d="M4.93564 12.8384C5.50363 6.34629 11.227 1.5438 17.7192 2.11179L49.7966 4.9182C51.9974 5.11074 53.6253 7.05087 53.4328 9.2516L52.9099 15.2288C52.7173 17.4295 50.7772 19.0575 48.5765 18.8649L6.93553 15.2218C5.72512 15.1159 4.82974 14.0488 4.93564 12.8384Z" fill="#9BA1AB" stroke="#192439" stroke-width="2"/>
<path d="M48.0444 58.0685H43.9524V35.1885H48.0444V58.0685ZM45.9764 31.0525C45.243 31.0525 44.6124 30.8179 44.0844 30.3485C43.5857 29.8499 43.3364 29.1899 43.3364 28.3685C43.3364 27.5472 43.5857 26.9019 44.0844 26.4325C44.6124 25.9339 45.243 25.6845 45.9764 25.6845C46.7097 25.6845 47.3257 25.9339 47.8244 26.4325C48.3524 26.9019 48.6164 27.5472 48.6164 28.3685C48.6164 29.1899 48.3524 29.8499 47.8244 30.3485C47.3257 30.8179 46.7097 31.0525 45.9764 31.0525ZM59.1733 36.2005C59.6719 35.8779 60.4199 35.5405 61.4173 35.1885C62.4439 34.8365 63.6173 34.6605 64.9373 34.6605C66.5799 34.6605 68.0319 34.9539 69.2933 35.5405C70.5839 36.1272 71.6693 36.9485 72.5493 38.0045C73.4293 39.0605 74.0893 40.3219 74.5293 41.7885C74.9986 43.2552 75.2333 44.8685 75.2333 46.6285C75.2333 48.4765 74.9546 50.1485 74.3973 51.6445C73.8693 53.1112 73.1066 54.3579 72.1093 55.3845C71.1119 56.4112 69.9093 57.2032 68.5013 57.7605C67.0933 58.3179 65.5093 58.5965 63.7493 58.5965C61.8426 58.5965 60.1559 58.4645 58.6893 58.2005C57.2226 57.9365 56.0199 57.6725 55.0813 57.4085V24.6285L59.1733 23.9245V36.2005ZM59.1733 54.5045C59.5839 54.6219 60.1559 54.7392 60.8893 54.8565C61.6519 54.9445 62.5906 54.9885 63.7053 54.9885C65.9053 54.9885 67.6653 54.2699 68.9853 52.8325C70.3053 51.3659 70.9653 49.2979 70.9653 46.6285C70.9653 45.4552 70.8479 44.3552 70.6133 43.3285C70.3786 42.3019 69.9973 41.4219 69.4693 40.6885C68.9413 39.9259 68.2519 39.3392 67.4013 38.9285C66.5799 38.4885 65.5826 38.2685 64.4093 38.2685C63.2946 38.2685 62.2679 38.4592 61.3293 38.8405C60.3906 39.2219 59.6719 39.6179 59.1733 40.0285V54.5045ZM99.2074 57.4085C98.2688 57.6432 97.0221 57.8925 95.4674 58.1565C93.9421 58.4205 92.1674 58.5525 90.1434 58.5525C88.3834 58.5525 86.9021 58.3032 85.6994 57.8045C84.4968 57.2765 83.5288 56.5432 82.7954 55.6045C82.0621 54.6659 81.5341 53.5659 81.2114 52.3045C80.8888 51.0139 80.7274 49.5912 80.7274 48.0365V35.1885H84.8194V47.1565C84.8194 49.9432 85.2594 51.9379 86.1394 53.1405C87.0194 54.3432 88.5008 54.9445 90.5834 54.9445C91.0234 54.9445 91.4781 54.9299 91.9474 54.9005C92.4168 54.8712 92.8568 54.8419 93.2674 54.8125C93.6781 54.7539 94.0448 54.7099 94.3674 54.6805C94.7194 54.6219 94.9688 54.5632 95.1154 54.5045V35.1885H99.2074V57.4085Z" fill="#9BA1AB"/>
</svg>
