<svg width="28" height="28" viewBox="0 0 28 28" fill="none" xmlns="http://www.w3.org/2000/svg">
<path d="M8.99957 12C8.99957 11.45 9.44957 11 9.99957 11H17.9996C18.5496 11 18.9996 11.45 18.9996 12C18.9996 12.55 18.5496 13 17.9996 13H9.99957C9.44957 13 8.99957 12.55 8.99957 12Z" fill="#3B3D41"/>
<path d="M9.99957 16C9.44957 16 8.99957 16.45 8.99957 17C8.99957 17.55 9.44957 18 9.99957 18H13.9996C14.5496 18 14.9996 17.55 14.9996 17C14.9996 16.45 14.5496 16 13.9996 16H9.99957Z" fill="#3B3D41"/>
<path fill-rule="evenodd" clip-rule="evenodd" d="M13.9996 0C6.26957 0 -0.000427246 6.23005 -0.000427246 13.9301C-0.000427246 21.6201 6.20953 28 13.9595 28H26.9996C27.3296 28 27.6295 27.8399 27.8195 27.5699C28.0095 27.2999 28.0495 26.96 27.9395 26.66L25.9395 21.21C27.2495 19.09 27.9996 16.6001 27.9996 13.9301C27.9996 6.23005 21.7296 0 13.9996 0ZM1.99957 13.9301C1.99957 7.35005 7.36957 2 13.9996 2C20.6296 2 25.9996 7.35005 25.9996 13.9301C25.9996 16.3701 25.2596 18.64 23.9996 20.53C23.8196 20.8 23.7796 21.1301 23.8896 21.4301L25.5695 26H13.9595C7.33953 26 1.99957 20.5401 1.99957 13.9301Z" fill="#3B3D41"/>
</svg>
