<svg width="24" height="24" viewBox="0 0 24 24" fill="none" xmlns="http://www.w3.org/2000/svg">
<path d="M13.3333 8H10.6667V10.6667H13.3333V8ZM18.6667 8H16V10.6667H18.6667V8ZM22.6667 16.6667C21.0067 16.6667 19.4067 16.4 17.9067 15.9067C17.4467 15.76 16.92 15.8667 16.5533 16.2333L13.62 19.1733C9.84 17.2533 6.76 14.1667 4.83333 10.3933L7.76667 7.45333C8.13333 7.08667 8.24 6.56 8.09333 6.1C7.6 4.6 7.33333 2.99333 7.33333 1.33333C7.33333 0.593333 6.74 0 6 0H1.33333C0.593333 0 0 0.593333 0 1.33333C0 13.8533 10.1467 24 22.6667 24C23.4067 24 24 23.4067 24 22.6667V18C24 17.26 23.4067 16.6667 22.6667 16.6667ZM21.3333 8V10.6667H24V8H21.3333Z" fill="#4C5057"/>
</svg>
