<?xml version="1.0" encoding="utf-8"?><svg viewBox="0 0 29 28" xmlns="http://www.w3.org/2000/svg" xmlns:xlink="http://www.w3.org/1999/xlink"><style>:root>svg{display:none}:root>svg:target{display:block}</style><svg fill="none" viewBox="0 0 10 23" id="arrow-left" xmlns="http://www.w3.org/2000/svg"><path d="M8.859 22.76.195 12.08a.962.962 0 0 1 0-1.16L8.859.24c.26-.32.686-.32.946 0 .26.321.26.842 0 1.162L1.608 11.5l8.197 10.098c.26.32.26.84 0 1.161-.26.321-.686.321-.946 0Z" fill="#9BA1AB"/></svg><svg fill="none" viewBox="0 0 10 23" id="arrow-right" xmlns="http://www.w3.org/2000/svg"><path d="m1.141.24 8.664 10.68c.26.32.26.84 0 1.16L1.141 22.76c-.26.32-.686.32-.946 0a.962.962 0 0 1 0-1.162L8.392 11.5.195 1.402a.962.962 0 0 1 0-1.161c.26-.321.686-.321.946 0Z" fill="#9BA1AB"/></svg><svg fill="none" viewBox="0 0 29 28" id="cart" xmlns="http://www.w3.org/2000/svg"><path fill-rule="evenodd" clip-rule="evenodd" d="M2.329.449a.99.99 0 0 0-1.38-.28.99.99 0 0 0-.28 1.38l1.91 2.87 2.89 10.84a6.39 6.39 0 0 0 6.17 4.74h12.86c.55 0 1-.45 1-1s-.45-1-1-1h-12.86c-1.57 0-2.99-.84-3.77-2.14l16.9-1.72a2.996 2.996 0 0 0 2.64-2.37l1.07-5.16c.39-1.86-1.04-3.61-2.94-3.61h-21.5L2.329.449Zm4.85 13.47-2.38-8.92h20.74c.64 0 1.11.58.98 1.2l-1.07 5.16c-.09.43-.44.75-.88.79l-17.39 1.77ZM6.499 24.999c0-1.66 1.34-3 3-3s3 1.34 3 3-1.34 3-3 3-3-1.34-3-3Zm3-1c-.55 0-1 .45-1 1s.45 1 1 1 1-.45 1-1-.45-1-1-1ZM19.499 24.999c0-1.66 1.34-3 3-3s3 1.34 3 3-1.34 3-3 3-3-1.34-3-3Zm3-1c-.55 0-1 .45-1 1s.45 1 1 1 1-.45 1-1-.45-1-1-1Z" fill="#3B3D41"/></svg><svg fill="none" viewBox="0 0 28 28" id="chat" xmlns="http://www.w3.org/2000/svg"><path d="M9 12c0-.55.45-1 1-1h8c.55 0 1 .45 1 1s-.45 1-1 1h-8c-.55 0-1-.45-1-1ZM10 16c-.55 0-1 .45-1 1s.45 1 1 1h4c.55 0 1-.45 1-1s-.45-1-1-1h-4Z" fill="#3B3D41"/><path fill-rule="evenodd" clip-rule="evenodd" d="M14 0C6.27 0 0 6.23 0 13.93 0 21.62 6.21 28 13.96 28H27c.33 0 .63-.16.82-.43.19-.27.23-.61.12-.91l-2-5.45A13.79 13.79 0 0 0 28 13.93C28 6.23 21.73 0 14 0ZM2 13.93C2 7.35 7.37 2 14 2s12 5.35 12 11.93c0 2.44-.74 4.71-2 6.6-.18.27-.22.6-.11.9L25.57 26H13.96C7.34 26 2 20.54 2 13.93Z" fill="#3B3D41"/></svg><svg fill="none" viewBox="0 0 18 15" id="like" xmlns="http://www.w3.org/2000/svg"><path d="M5.671 6.47H1.89c-.82 0-1.33.536-1.334 1.023M5.67 6.469.055 7.49l.5.004M5.67 6.469l.15-.202L9.677 1.05l.006-.008C9.905.727 10.342.5 10.854.5h.235c.452 0 .826.172 1.06.41.23.234.32.52.252.802l-.614 2.598.486.116M5.67 6.47l6.115-2.158M.555 7.493.5 13.463l.055-5.97Zm17.398-.8-.296-.088-.184-.05V6.55l-2.182 7.114-.002.007-.002.008c-.117.428-.619.821-1.305.821H1.834c-.83 0-1.338-.547-1.334-1.038l15.27.349 2.183-7.118Zm0 0-.226-.07m.226.07.003-.009m-.23-.06-4.838-4.797-.615 2.6m5.454 2.196.229.061m-.23-.06-.25-.078v-.004l.48.142m0 0c.254-.956-.617-1.863-1.79-1.863h-3.328c-.24 0-.403-.067-.486-.134m0 0c-.066-.054-.11-.13-.08-.26m.08.26-.314.388a.734.734 0 0 1-.231-.317.768.768 0 0 1-.02-.447m.565.376-.316.388c.194.157.479.246.802.246h3.327c.46 0 .838.178 1.07.42.228.236.312.524.24.808l-5.689-2.238m.487.115-.487-.115M9.978 1l-.005.007L6.017 6.36l-.098.132v7.937H13.982c.427 0 .892-.251 1.02-.731l.002-.009 2.178-7.097.004-.013.003-.013a.902.902 0 0 0-.239-.852c-.2-.206-.484-.321-.785-.321h-3.327c-.428 0-.814-.121-1.067-.327-.247-.202-.337-.455-.272-.732l.616-2.599a.903.903 0 0 0-.245-.847 1.095 1.095 0 0 0-.781-.317h-.235c-.328 0-.67.143-.876.43ZM5.135 14.429h.5V6.54H1.89c-.49 0-1.044.345-1.05.95v.001l-.055 5.969c-.006.615.556.968 1.05.968h3.301Z" fill="#4C5057" stroke="#4C5057"/></svg><svg fill="none" viewBox="0 0 20 12" id="lines" xmlns="http://www.w3.org/2000/svg"><path d="M20 1.695c0 .527-.375.959-.833.959H.833C.375 2.654 0 2.222 0 1.695 0 1.168.375.737.833.737h18.334c.458 0 .833.43.833.958ZM19.167 7.068c.458 0 .833-.431.833-.959 0-.527-.375-.958-.833-.958H.833c-.458 0-.833.431-.833.958 0 .528.375.959.833.959h18.334ZM10 11.737c.458 0 .833-.432.833-.959 0-.527-.375-.959-.833-.959H.833c-.458 0-.833.432-.833.959 0 .527.375.959.833.959H10Z" fill="#4C5057"/></svg><svg fill="none" viewBox="0 0 26 28" id="login" xmlns="http://www.w3.org/2000/svg"><path fill-rule="evenodd" clip-rule="evenodd" d="M13 0a7 7 0 1 0 0 14 7 7 0 0 0 0-14ZM8 7a5 5 0 1 1 10.001.001A5 5 0 0 1 8 7ZM4.604 16c-1.32 0-2.646.661-3.286 1.952-.524 1.056-1.165 2.626-1.305 4.25-.103 1.202.397 2.44 1.503 3.128C3.267 26.417 6.876 28 13 28c6.125 0 9.733-1.583 11.484-2.67 1.106-.688 1.606-1.926 1.503-3.128-.14-1.624-.78-3.194-1.305-4.25-.64-1.291-1.966-1.952-3.286-1.952H4.604ZM3.11 18.84c.25-.505.81-.84 1.494-.84h16.792c.685 0 1.244.335 1.494.84.48.968.996 2.275 1.104 3.533.048.559-.185 1.021-.565 1.258C22.002 24.517 18.761 26 13 26c-5.76 0-9.002-1.483-10.429-2.369-.38-.237-.613-.699-.565-1.258.108-1.258.624-2.565 1.104-3.533Z" fill="#3B3D41"/></svg><svg viewBox="0 0 24 24" id="phone" xmlns="http://www.w3.org/2000/svg"><path d="M13.333 8h-2.666v2.667h2.666V8Zm5.334 0H16v2.667h2.667V8Zm4 8.667c-1.66 0-3.26-.267-4.76-.76a1.338 1.338 0 0 0-1.354.326l-2.933 2.94a20.114 20.114 0 0 1-8.787-8.78l2.934-2.94c.366-.366.473-.893.326-1.353-.493-1.5-.76-3.107-.76-4.767C7.333.593 6.74 0 6 0H1.333C.593 0 0 .593 0 1.333 0 13.853 10.147 24 22.667 24c.74 0 1.333-.593 1.333-1.333V18c0-.74-.593-1.333-1.333-1.333ZM21.333 8v2.667H24V8h-2.667Z"/></svg><svg fill="none" viewBox="0 0 18 24" id="place" xmlns="http://www.w3.org/2000/svg"><path fill-rule="evenodd" clip-rule="evenodd" d="M9 5.143c-2.258 0-4.09 1.92-4.09 4.286 0 2.365 1.832 4.285 4.09 4.285s4.09-1.92 4.09-4.285c0-2.366-1.832-4.286-4.09-4.286ZM6.545 9.429c0-1.423 1.097-2.572 2.455-2.572s2.454 1.149 2.454 2.572C11.454 10.85 10.358 12 9 12s-2.455-1.149-2.455-2.571Z" fill="#4C5057"/><path fill-rule="evenodd" clip-rule="evenodd" d="M8.493 23.82 9 23.143l-.507.677c.294.24.72.24 1.014 0L9 23.143l.507.677v-.009h.008l.017-.017c.024-.017.049-.034.073-.068.066-.052.156-.129.279-.232.229-.205.556-.506.949-.891a32.113 32.113 0 0 0 2.888-3.197C15.799 16.783 18 13.089 18 9.163 18 4.08 13.95 0 9 0S0 4.08 0 9.163c0 3.925 2.2 7.62 4.28 10.243a32.13 32.13 0 0 0 2.887 3.197c.393.385.72.686.95.891.122.103.212.18.278.232.024.034.049.051.073.068l.017.017h.008v.009ZM1.636 9.163C1.636 5.074 4.91 1.714 9 1.714c4.09 0 7.364 3.36 7.364 7.449 0 3.3-1.89 6.6-3.903 9.154a30.456 30.456 0 0 1-2.741 3.026c-.278.274-.524.506-.72.686-.196-.18-.442-.412-.72-.686a30.45 30.45 0 0 1-2.74-3.026c-2.014-2.554-3.904-5.854-3.904-9.154Z" fill="#4C5057"/></svg></svg>